<svg width="223" height="162" viewBox="0 0 223 162" fill="none" xmlns="http://www.w3.org/2000/svg">
<g clip-path="url(#clip0_35_48)">
<path d="M133.57 83.09C135.24 81.2 136.74 79.36 138.39 77.66C147.23 68.6 160.52 69.37 168.39 79.33C172.55 84.61 173.39 90.59 172.25 96.97C171.65 100.25 169.79 101.91 167.11 102.19C165.412 102.402 163.69 102.076 162.186 101.258C160.683 100.44 159.474 99.1712 158.73 97.63C158.468 97.1256 158.257 96.5964 158.1 96.05C157.71 94.51 157.1 93.21 155.1 93.31C156.71 91.31 160.02 91.57 161.84 93.66C162.467 94.6062 163.191 95.4844 164 96.28C164.75 96.84 166.19 97.41 166.75 97.05C167.154 96.714 167.471 96.2864 167.677 95.8029C167.882 95.3194 167.969 94.7939 167.93 94.27C167.68 92.8659 167.156 91.5248 166.387 90.3236C165.619 89.1224 164.62 88.0847 163.45 87.27C160.87 85.4 158.15 85.67 155.45 86.92C152.277 88.3863 149.667 90.8427 148.01 93.92C145.21 98.92 142.76 104.18 140.19 109.34C134.19 121.39 133.38 122.57 124.52 131.95C127.22 133.61 129.59 132.74 131.7 130.95C138.378 125.229 143.244 117.684 145.7 109.24L146.15 107.83C150.08 108.29 153.98 108.83 157.91 109.21C164.59 109.8 171.22 109.96 177.37 106.52C179.527 105.318 181.176 103.375 182.01 101.05C184.39 94.93 183.52 88.88 181.45 82.97C179.71 77.97 177.56 73.16 175.54 68.27C172.22 60.21 171.6 52.07 175.04 43.89C178.63 35.33 186.09 30.12 194.49 30.16C201.77 30.21 207.41 35.01 208.03 41.76C208.2 44.4078 207.569 47.0455 206.22 49.33C204.76 52.08 203.48 54.93 202.09 57.72C201.88 58.14 201.54 58.72 201.18 58.77C200.933 58.7574 200.693 58.6795 200.486 58.5443C200.279 58.409 200.111 58.2212 200 58C199.61 56.67 199 55.24 199.17 54C199.53 51.41 200.45 48.9 200.97 46.32C201.64 42.98 200.22 41.79 196.97 43.03C192.07 44.91 190.59 49.11 190.08 53.81C189.44 59.81 191.9 65 194.26 70.22C196.26 74.68 198.52 79.06 200.4 83.58C202.852 89.3478 203.661 95.6809 202.74 101.88C201.61 109.47 196.9 114.76 190.87 119.05C183.57 124.25 175.35 125.95 166.56 125.42C160.22 125.04 153.89 124.6 147.56 124.19C146.95 124.19 146.33 124.19 145.56 124.19V127.62C162.78 126.86 177.9 131.96 190.4 144.35C189.028 145.785 187.329 146.866 185.448 147.502C183.568 148.137 181.561 148.308 179.6 148C173.51 147.09 167.47 145.71 161.36 145.15C151.75 144.27 142.1 144.3 132.77 147.2C129.147 148.435 125.629 149.96 122.25 151.76C120.12 152.84 118.25 153.97 116.6 151.46C123.35 145.25 131.22 140.75 140.51 139.4C149.8 138.05 159.27 137.69 168.65 139.47C171.23 139.96 173.83 140.28 176.51 140.69C169.459 136.537 161.452 134.284 153.27 134.15C142.51 133.78 132.27 135.52 122.86 141.15C118.226 143.856 114.321 147.648 111.48 152.2C110.99 152.98 110.42 153.71 109.78 154.61C108.97 153.4 108.29 152.37 107.6 151.36C102.91 144.5 96.31 140.31 88.6 137.46C76.88 133.13 65 133 53.08 136.27C49.3134 137.482 45.6864 139.091 42.26 141.07C44.74 140.65 47.2 140.2 49.68 139.81C61.12 138.05 72.57 137.32 83.91 140.37C89.8596 141.862 95.3293 144.85 99.8 149.05C100.65 149.86 101.35 150.83 102.2 151.82C101.2 153.07 100.2 153.73 98.55 152.71C88.15 146.16 76.65 143.96 64.6 144.83C56.98 145.39 49.41 146.69 41.83 147.73C37.83 148.28 33.95 148.21 30.45 145.73C29.22 144.85 29.1 144.22 30.25 143.12C37.2926 136.412 45.9881 131.692 55.45 129.44C61.6579 127.895 68.0627 127.292 74.45 127.65L74.22 124C69.94 124.23 65.75 124.37 61.57 124.68C54.31 125.22 46.97 126.59 39.84 124.4C28.46 120.89 19.91 114.22 17.47 101.83C16.4485 95.9608 17.0324 89.9246 19.16 84.36C20.95 79.36 23.1 74.44 25.26 69.57C28.15 63.04 30.07 56.42 27.82 49.3C26.82 46.16 25.24 43.36 21.58 42.66C18.58 42.07 17.76 43 18.65 45.99C19.2506 47.841 19.748 49.7239 20.14 51.63C20.4435 52.884 20.402 54.1968 20.02 55.4292C19.638 56.6615 18.9296 57.7676 17.97 58.63C17.65 58.07 17.43 57.72 17.26 57.35C16.4064 55.0783 15.3869 52.8723 14.21 50.75C8.64995 42.21 12.53 32.55 22.51 30.54C29.15 29.19 34.6 31.7 39.3 36.17C45.55 42.17 47.16 49.63 46.52 57.91C46.09 63.35 43.71 68.16 41.93 73.18C40.53 77.18 39.06 81.08 37.93 85.11C36.3371 90.2657 36.5131 95.8058 38.43 100.85C39.0728 102.527 40.0855 104.037 41.3927 105.268C42.6999 106.499 44.2679 107.419 45.98 107.96C51.98 110.15 57.98 109.52 64.05 108.88L72.31 108C74.47 112.26 76.41 116.4 78.63 120.37C80.9174 124.511 83.9717 128.18 87.63 131.18C90.27 133.33 91.63 133.44 94.1 131.98C88.9882 127.054 84.7363 121.308 81.52 114.98C78.52 108.98 75.87 102.92 73.02 96.89C71.3861 93.541 68.9883 90.6226 66.02 88.37C63.59 86.47 60.89 85.57 57.94 86.93C56.4253 87.5767 55.1081 88.6116 54.1213 89.9302C53.1346 91.2488 52.5132 92.8044 52.32 94.44C52.3188 94.9049 52.4257 95.3637 52.6322 95.7802C52.8387 96.1967 53.1392 96.5595 53.51 96.84C53.7671 96.9979 54.0547 97.0997 54.3539 97.1386C54.6531 97.1776 54.9572 97.1528 55.2462 97.0659C55.5351 96.979 55.8025 96.832 56.0306 96.6345C56.2588 96.437 56.4426 96.1935 56.57 95.92C56.98 95.21 57.33 94.47 57.74 93.77C59.18 91.33 61.94 91.08 64.02 93.18C61.95 93.92 62.02 93.93 61.07 96.38C60.5762 97.8526 59.6973 99.1662 58.5244 100.184C57.3514 101.203 55.9274 101.888 54.4 102.17C50.6 102.99 47.49 100.35 47.22 95.67C46.77 87.67 49.06 80.67 55.47 75.36C62.2 69.83 72.74 70.17 79.6 76.26C81.93 78.32 83.94 80.75 86.31 83.26C86.43 81.26 86.67 79.19 86.64 77.18C86.39 64.65 81.42 54.7 71 47.51C66.7629 44.7781 63.1065 41.2372 60.24 37.09C53.48 26.72 57.1 11.32 67.85 5.31001C69.0975 4.7096 70.5248 4.59898 71.85 5.00001C73.74 5.63001 73.94 7.68001 72.46 9.07001C71.7236 9.74929 70.9076 10.3369 70.03 10.82C62.86 14.82 59.81 25.27 68.63 31.97C72.4788 34.6801 76.5384 37.0778 80.77 39.14C90.4451 44.2587 98.5238 51.943 104.12 61.35C107.758 67.1291 109.826 73.7573 110.12 80.58C110.132 80.8844 110.179 81.1863 110.26 81.48C111.32 77.56 112.33 73.21 113.7 68.97C117.19 58.11 123.97 49.62 133.18 43.07C137.12 40.27 141.42 37.99 145.4 35.25C147.97 33.49 150.69 31.68 152.59 29.25C157.25 23.37 155.87 16.19 149.71 11.9C148.764 11.2984 147.861 10.63 147.01 9.90001C146.384 9.32085 145.994 8.53019 145.917 7.68067C145.839 6.83115 146.079 5.98301 146.59 5.30001C147.82 3.85001 149.35 4.30001 150.46 5.30001C153.35 7.79001 156.46 10.19 158.8 13.13C162.51 17.71 162.41 23.26 161.59 28.81C160.41 36.89 155.22 42.26 149.3 47.13C145.16 50.53 141.19 54.07 138.37 58.73C134.37 65.38 132.11 76.37 133.57 83.09Z" fill="url(#paint0_linear_35_48)"/>
<path d="M136.83 27C136.83 28.63 136.9 30.27 136.83 31.9C136.71 34.19 135.69 35.36 133.94 35.39C132.4 35.39 131.1 33.95 130.94 31.89C130.815 30.5104 130.785 29.1238 130.85 27.74C131.44 16.91 124.26 9.74001 114.69 7.96001C105.56 6.22001 97.79 8.58001 92.25 16.56C90 19.76 89.62 23.33 89.49 27C89.57 28.5657 89.57 30.1344 89.49 31.7C89.3294 32.8607 88.8082 33.9416 88 34.79C86.4 36.28 84.18 35.37 83.68 33.23C79.84 16.92 93 0.170007 109.8 7.19808e-06C120.94 -0.109993 133.58 8.88001 136.22 19C136.89 21.57 136.84 24.33 137.12 27H136.83Z" fill="url(#paint1_linear_35_48)"/>
<path d="M122.63 32C122.71 37 119.81 40.57 116.57 43.9C114.78 45.74 112.86 47.46 111.02 49.26C110.09 50.18 109.47 50.26 108.45 49.14C106.09 46.46 103.45 44.07 101.01 41.41C96.01 35.86 96.18 28.73 101.23 23.84C107 18.34 116.64 19.31 120.9 26C122 27.72 122.63 31.8335 122.63 31.8335V32Z" fill="url(#paint2_linear_35_48)"/>
<path d="M108.89 161C103.55 160.93 98.3 155.7 98.45 150.6C98.63 144.38 103.38 140.04 109.91 140.12C112.673 140.172 115.305 141.303 117.245 143.271C119.184 145.239 120.277 147.887 120.29 150.65C120.22 156.17 114.78 161.11 108.89 161Z" fill="url(#paint3_linear_35_48)"/>
<path d="M61.2 58.86C61.213 59.556 61.4973 60.2194 61.9923 60.7088C62.4873 61.1982 63.1539 61.4749 63.85 61.48C64.4841 61.4775 65.0922 61.2272 65.5444 60.7826C65.9965 60.3379 66.2569 59.7341 66.27 59.1C66.246 58.4071 65.9746 57.7458 65.505 57.2358C65.0353 56.7258 64.3985 56.4009 63.71 56.32C63.0415 56.3279 62.4031 56.599 61.9333 57.0745C61.4634 57.55 61.1999 58.1915 61.2 58.86Z" fill="url(#paint4_linear_35_48)"/>
<path d="M46.45 19.85C46.36 22.85 44.65 24.61 41.98 24.52C41.3807 24.5338 40.7854 24.4191 40.2341 24.1837C39.6828 23.9483 39.1883 23.5976 38.7838 23.1553C38.3793 22.7129 38.0742 22.189 37.889 21.6189C37.7038 21.0488 37.6427 20.4457 37.71 19.85C37.6844 19.2392 37.7822 18.6295 37.9975 18.0574C38.2129 17.4852 38.5413 16.9623 38.9631 16.5199C39.385 16.0775 39.8917 15.7246 40.453 15.4824C41.0143 15.2402 41.6186 15.1135 42.23 15.11C42.8288 15.1118 43.4205 15.2399 43.9666 15.4858C44.5126 15.7317 45.0006 16.09 45.3988 16.5373C45.797 16.9846 46.0965 17.5108 46.2776 18.0816C46.4587 18.6524 46.5174 19.255 46.45 19.85Z" fill="url(#paint5_linear_35_48)"/>
<path d="M175.42 24.56C172.58 24.48 171.23 23 171.33 20.11C171.43 17.22 172.9 15.52 175.45 15.56C176.048 15.5613 176.64 15.6855 177.188 15.9249C177.737 16.1642 178.23 16.5136 178.638 16.9514C179.046 17.3893 179.359 17.9062 179.559 18.4701C179.759 19.0341 179.841 19.6331 179.8 20.23C179.82 20.8083 179.72 21.3844 179.506 21.9221C179.292 22.4598 178.97 22.9474 178.558 23.3542C178.147 23.761 177.655 24.0781 177.115 24.2856C176.575 24.4932 175.998 24.5866 175.42 24.56Z" fill="url(#paint6_linear_35_48)"/>
<path d="M155.64 59.39C155.63 58.9059 155.719 58.425 155.902 57.9766C156.085 57.5283 156.358 57.1221 156.703 56.7831C157.049 56.444 157.46 56.1792 157.912 56.005C158.364 55.8308 158.846 55.7508 159.33 55.77C159.75 55.743 160.171 55.8046 160.565 55.9509C160.96 56.0972 161.319 56.3248 161.62 56.6191C161.921 56.9133 162.157 57.2676 162.312 57.6588C162.467 58.0501 162.538 58.4696 162.52 58.89C162.524 59.8898 162.154 60.8549 161.482 61.5953C160.81 62.3356 159.885 62.7975 158.89 62.89C158.439 62.9006 157.99 62.8154 157.574 62.6398C157.158 62.4642 156.784 62.2024 156.477 61.8715C156.17 61.5407 155.936 61.1484 155.792 60.7206C155.648 60.2929 155.596 59.8393 155.64 59.39Z" fill="url(#paint7_linear_35_48)"/>
</g>
<defs>
<linearGradient id="paint0_linear_35_48" x1="7.5" y1="69" x2="215.5" y2="58" gradientUnits="userSpaceOnUse">
<stop stop-color="#E1036E"/>
<stop offset="1" stop-color="#5100FF"/>
</linearGradient>
<linearGradient id="paint1_linear_35_48" x1="7.5" y1="69" x2="215.5" y2="58" gradientUnits="userSpaceOnUse">
<stop stop-color="#E1036E"/>
<stop offset="1" stop-color="#5100FF"/>
</linearGradient>
<linearGradient id="paint2_linear_35_48" x1="7.5" y1="69" x2="215.5" y2="58" gradientUnits="userSpaceOnUse">
<stop stop-color="#E1036E"/>
<stop offset="1" stop-color="#5100FF"/>
</linearGradient>
<linearGradient id="paint3_linear_35_48" x1="7.5" y1="69" x2="215.5" y2="58" gradientUnits="userSpaceOnUse">
<stop stop-color="#E1036E"/>
<stop offset="1" stop-color="#5100FF"/>
</linearGradient>
<linearGradient id="paint4_linear_35_48" x1="7.5" y1="69" x2="215.5" y2="58" gradientUnits="userSpaceOnUse">
<stop stop-color="#E1036E"/>
<stop offset="1" stop-color="#5100FF"/>
</linearGradient>
<linearGradient id="paint5_linear_35_48" x1="7.5" y1="69" x2="215.5" y2="58" gradientUnits="userSpaceOnUse">
<stop stop-color="#E1036E"/>
<stop offset="1" stop-color="#5100FF"/>
</linearGradient>
<linearGradient id="paint6_linear_35_48" x1="7.5" y1="69" x2="215.5" y2="58" gradientUnits="userSpaceOnUse">
<stop stop-color="#E1036E"/>
<stop offset="1" stop-color="#5100FF"/>
</linearGradient>
<linearGradient id="paint7_linear_35_48" x1="7.5" y1="69" x2="215.5" y2="58" gradientUnits="userSpaceOnUse">
<stop stop-color="#E1036E"/>
<stop offset="1" stop-color="#5100FF"/>
</linearGradient>
<clipPath id="clip0_35_48">
<rect width="222.35" height="161.03" fill="white"/>
</clipPath>
</defs>
</svg>
